<svg xmlns="http://www.w3.org/2000/svg" width="805" height="600"><rect width="805" height="600" x="0" y="0" fill="#FFFFFF" id="background"/><g transform="translate(50,50)" id="visualization"><g id="axis"><g transform="translate(0,500)" fill="none" font-size="10" font-family="sans-serif" text-anchor="middle"><path class="domain" stroke="currentColor" d="M0.5,6V0.5H705.5V6"/><g class="tick" opacity="1" transform="translate(0.5,0)"><line stroke="currentColor" y2="6"/><text fill="currentColor" y="9" dy="0.71em">1940</text></g><g class="tick" opacity="1" transform="translate(78.5,0)"><line stroke="currentColor" y2="6"/><text fill="currentColor" y="9" dy="0.71em">1950</text></g><g class="tick" opacity="1" transform="translate(157.5,0)"><line stroke="currentColor" y2="6"/><text fill="currentColor" y="9" dy="0.71em">1960</text></g><g class="tick" opacity="1" transform="translate(235.5,0)"><line stroke="currentColor" y2="6"/><text fill="currentColor" y="9" dy="0.71em">1970</text></g><g class="tick" opacity="1" transform="translate(313.5,0)"><line stroke="currentColor" y2="6"/><text fill="currentColor" y="9" dy="0.71em">1980</text></g><g class="tick" opacity="1" transform="translate(392.5,0)"><line stroke="currentColor" y2="6"/><text fill="currentColor" y="9" dy="0.71em">1990</text></g><g class="tick" opacity="1" transform="translate(470.5,0)"><line stroke="currentColor" y2="6"/><text fill="currentColor" y="9" dy="0.71em">2000</text></g><g class="tick" opacity="1" transform="translate(548.5,0)"><line stroke="currentColor" y2="6"/><text fill="currentColor" y="9" dy="0.71em">2010</text></g><g class="tick" opacity="1" transform="translate(627.5,0)"><line stroke="currentColor" y2="6"/><text fill="currentColor" y="9" dy="0.71em">2020</text></g><g class="tick" opacity="1" transform="translate(705.5,0)"><line stroke="currentColor" y2="6"/><text fill="currentColor" y="9" dy="0.71em">2030</text></g></g></g><g id="viz"><g id="Alcide De Gasperi" transform="translate(0,0)"><text x="-4" y="6.944444444444445" text-anchor="end" dominant-baseline="middle" style="font-family: Arial, sans-serif; font-size: 10px; fill: black; font-weight: normal;">Alcide De Gasperi</text><rect x="51" y="0" width="5" height="13.88888888888889" fill="#ff7f0e"/><rect x="56" y="0" width="2" height="13.88888888888889" fill="#ff7f0e"/><rect x="58" y="0" width="8" height="13.88888888888889" fill="#ff7f0e"/><rect x="66" y="0" width="13" height="13.88888888888889" fill="#ff7f0e"/><rect x="79" y="0" width="12" height="13.88888888888889" fill="#ff7f0e"/><rect x="91" y="0" width="15" height="13.88888888888889" fill="#ff7f0e"/><rect x="106" y="0" width="1" height="13.88888888888889" fill="#ff7f0e"/><line x1="0" y1="0" x2="705" y2="0" style="stroke: rgb(204, 204, 204);"/></g><g id="Giuseppe Pella" transform="translate(0,13.88888888888889)"><text x="-4" y="6.944444444444445" text-anchor="end" dominant-baseline="middle" style="font-family: Arial, sans-serif; font-size: 10px; fill: black; font-weight: normal;">Giuseppe Pella</text><rect x="107" y="0" width="3" height="13.88888888888889" fill="#ff7f0e"/><line x1="0" y1="0" x2="705" y2="0" style="stroke: rgb(204, 204, 204);"/></g><g id="Amintore Fanfani" transform="translate(0,27.77777777777778)"><text x="-4" y="6.944444444444445" text-anchor="end" dominant-baseline="middle" style="font-family: Arial, sans-serif; font-size: 10px; fill: black; font-weight: normal;">Amintore Fanfani</text><rect x="110" y="0" width="1" height="13.88888888888889" fill="#ff7f0e"/><rect x="145" y="0" width="5" height="13.88888888888889" fill="#ff7f0e"/><rect x="161" y="0" width="12" height="13.88888888888889" fill="#ff7f0e"/><rect x="173" y="0" width="11" height="13.88888888888889" fill="#ff7f0e"/><rect x="336" y="0" width="5" height="13.88888888888889" fill="#ff7f0e"/><rect x="370" y="0" width="3" height="13.88888888888889" fill="#ff7f0e"/><line x1="0" y1="0" x2="705" y2="0" style="stroke: rgb(204, 204, 204);"/></g><g id="Mario Scelba" transform="translate(0,41.66666666666667)"><text x="-4" y="6.944444444444445" text-anchor="end" dominant-baseline="middle" style="font-family: Arial, sans-serif; font-size: 10px; fill: black; font-weight: normal;">Mario Scelba</text><rect x="111" y="0" width="10" height="13.88888888888889" fill="#ff7f0e"/><line x1="0" y1="0" x2="705" y2="0" style="stroke: rgb(204, 204, 204);"/></g><g id="Antonio Segni" transform="translate(0,55.55555555555556)"><text x="-4" y="6.944444444444445" text-anchor="end" dominant-baseline="middle" style="font-family: Arial, sans-serif; font-size: 10px; fill: black; font-weight: normal;">Antonio Segni</text><rect x="121" y="0" width="15" height="13.88888888888889" fill="#ff7f0e"/><rect x="150" y="0" width="8" height="13.88888888888889" fill="#ff7f0e"/><rect x="175" y="0" width="20" height="13.88888888888889" fill="#1f77b4"/><line x1="0" y1="0" x2="705" y2="0" style="stroke: rgb(204, 204, 204);"/></g><g id="Adone Zoli" transform="translate(0,69.44444444444444)"><text x="-4" y="6.944444444444445" text-anchor="end" dominant-baseline="middle" style="font-family: Arial, sans-serif; font-size: 10px; fill: black; font-weight: normal;">Adone Zoli</text><rect x="136" y="0" width="9" height="13.88888888888889" fill="#ff7f0e"/><line x1="0" y1="0" x2="705" y2="0" style="stroke: rgb(204, 204, 204);"/></g><g id="Fernando Tambroni" transform="translate(0,83.33333333333334)"><text x="-4" y="6.944444444444445" text-anchor="end" dominant-baseline="middle" style="font-family: Arial, sans-serif; font-size: 10px; fill: black; font-weight: normal;">Fernando Tambroni</text><rect x="158" y="0" width="3" height="13.88888888888889" fill="#ff7f0e"/><line x1="0" y1="0" x2="705" y2="0" style="stroke: rgb(204, 204, 204);"/></g><g id="Giovanni Leone" transform="translate(0,97.22222222222223)"><text x="-4" y="6.944444444444445" text-anchor="end" dominant-baseline="middle" style="font-family: Arial, sans-serif; font-size: 10px; fill: black; font-weight: normal;">Giovanni Leone</text><rect x="184" y="0" width="3" height="13.88888888888889" fill="#ff7f0e"/><rect x="223" y="0" width="4" height="13.88888888888889" fill="#ff7f0e"/><rect x="251" y="0" width="50" height="13.88888888888889" fill="#1f77b4"/><line x1="0" y1="0" x2="705" y2="0" style="stroke: rgb(204, 204, 204);"/></g><g id="Aldo Moro" transform="translate(0,111.11111111111111)"><text x="-4" y="6.944444444444445" text-anchor="end" dominant-baseline="middle" style="font-family: Arial, sans-serif; font-size: 10px; fill: black; font-weight: normal;">Aldo Moro</text><rect x="187" y="0" width="5" height="13.88888888888889" fill="#ff7f0e"/><rect x="192" y="0" width="13" height="13.88888888888889" fill="#ff7f0e"/><rect x="205" y="0" width="18" height="13.88888888888889" fill="#ff7f0e"/><rect x="273" y="0" width="10" height="13.88888888888889" fill="#ff7f0e"/><rect x="283" y="0" width="3" height="13.88888888888889" fill="#ff7f0e"/><line x1="0" y1="0" x2="705" y2="0" style="stroke: rgb(204, 204, 204);"/></g><g id="Mariano Rumor" transform="translate(0,125)"><text x="-4" y="6.944444444444445" text-anchor="end" dominant-baseline="middle" style="font-family: Arial, sans-serif; font-size: 10px; fill: black; font-weight: normal;">Mariano Rumor</text><rect x="227" y="0" width="5" height="13.88888888888889" fill="#ff7f0e"/><rect x="232" y="0" width="5" height="13.88888888888889" fill="#ff7f0e"/><rect x="237" y="0" width="3" height="13.88888888888889" fill="#ff7f0e"/><rect x="263" y="0" width="5" height="13.88888888888889" fill="#ff7f0e"/><rect x="268" y="0" width="5" height="13.88888888888889" fill="#ff7f0e"/><line x1="0" y1="0" x2="705" y2="0" style="stroke: rgb(204, 204, 204);"/></g><g id="Emilio Colombo" transform="translate(0,138.88888888888889)"><text x="-4" y="6.944444444444445" text-anchor="end" dominant-baseline="middle" style="font-family: Arial, sans-serif; font-size: 10px; fill: black; font-weight: normal;">Emilio Colombo</text><rect x="240" y="0" width="12" height="13.88888888888889" fill="#ff7f0e"/><line x1="0" y1="0" x2="705" y2="0" style="stroke: rgb(204, 204, 204);"/></g><g id="Giulio Andreotti" transform="translate(0,152.77777777777777)"><text x="-4" y="6.944444444444445" text-anchor="end" dominant-baseline="middle" style="font-family: Arial, sans-serif; font-size: 10px; fill: black; font-weight: normal;">Giulio Andreotti</text><rect x="252" y="0" width="10" height="13.88888888888889" fill="#ff7f0e"/><rect x="262" y="0" width="1" height="13.88888888888889" fill="#ff7f0e"/><rect x="286" y="0" width="13" height="13.88888888888889" fill="#ff7f0e"/><rect x="299" y="0" width="8" height="13.88888888888889" fill="#ff7f0e"/><rect x="307" y="0" width="3" height="13.88888888888889" fill="#ff7f0e"/><rect x="388" y="0" width="14" height="13.88888888888889" fill="#ff7f0e"/><rect x="402" y="0" width="9" height="13.88888888888889" fill="#ff7f0e"/><line x1="0" y1="0" x2="705" y2="0" style="stroke: rgb(204, 204, 204);"/></g><g id="Francesco Cossiga" transform="translate(0,166.66666666666669)"><text x="-4" y="6.944444444444445" text-anchor="end" dominant-baseline="middle" style="font-family: Arial, sans-serif; font-size: 10px; fill: black; font-weight: normal;">Francesco Cossiga</text><rect x="310" y="0" width="5" height="13.88888888888889" fill="#ff7f0e"/><rect x="315" y="0" width="5" height="13.88888888888889" fill="#ff7f0e"/><rect x="356" y="0" width="54" height="13.88888888888889" fill="#1f77b4"/><line x1="0" y1="0" x2="705" y2="0" style="stroke: rgb(204, 204, 204);"/></g><g id="Arnaldo Forlani" transform="translate(0,180.55555555555557)"><text x="-4" y="6.944444444444445" text-anchor="end" dominant-baseline="middle" style="font-family: Arial, sans-serif; font-size: 10px; fill: black; font-weight: normal;">Arnaldo Forlani</text><rect x="320" y="0" width="5" height="13.88888888888889" fill="#ff7f0e"/><line x1="0" y1="0" x2="705" y2="0" style="stroke: rgb(204, 204, 204);"/></g><g id="Giovanni Spadolini" transform="translate(0,194.44444444444446)"><text x="-4" y="6.944444444444445" text-anchor="end" dominant-baseline="middle" style="font-family: Arial, sans-serif; font-size: 10px; fill: black; font-weight: normal;">Giovanni Spadolini</text><rect x="325" y="0" width="9" height="13.88888888888889" fill="#ff7f0e"/><rect x="334" y="0" width="2" height="13.88888888888889" fill="#ff7f0e"/><line x1="0" y1="0" x2="705" y2="0" style="stroke: rgb(204, 204, 204);"/></g><g id="Bettino Craxi" transform="translate(0,208.33333333333334)"><text x="-4" y="6.944444444444445" text-anchor="end" dominant-baseline="middle" style="font-family: Arial, sans-serif; font-size: 10px; fill: black; font-weight: normal;">Bettino Craxi</text><rect x="341" y="0" width="24" height="13.88888888888889" fill="#ff7f0e"/><rect x="365" y="0" width="5" height="13.88888888888889" fill="#ff7f0e"/><line x1="0" y1="0" x2="705" y2="0" style="stroke: rgb(204, 204, 204);"/></g><g id="Giovanni Goria" transform="translate(0,222.22222222222223)"><text x="-4" y="6.944444444444445" text-anchor="end" dominant-baseline="middle" style="font-family: Arial, sans-serif; font-size: 10px; fill: black; font-weight: normal;">Giovanni Goria</text><rect x="373" y="0" width="5" height="13.88888888888889" fill="#ff7f0e"/><line x1="0" y1="0" x2="705" y2="0" style="stroke: rgb(204, 204, 204);"/></g><g id="Ciriaco De Mita" transform="translate(0,236.11111111111111)"><text x="-4" y="6.944444444444445" text-anchor="end" dominant-baseline="middle" style="font-family: Arial, sans-serif; font-size: 10px; fill: black; font-weight: normal;">Ciriaco De Mita</text><rect x="378" y="0" width="10" height="13.88888888888889" fill="#ff7f0e"/><line x1="0" y1="0" x2="705" y2="0" style="stroke: rgb(204, 204, 204);"/></g><g id="Giuliano Amato" transform="translate(0,250)"><text x="-4" y="6.944444444444445" text-anchor="end" dominant-baseline="middle" style="font-family: Arial, sans-serif; font-size: 10px; fill: black; font-weight: normal;">Giuliano Amato</text><rect x="411" y="0" width="7" height="13.88888888888889" fill="#ff7f0e"/><rect x="472" y="0" width="9" height="13.88888888888889" fill="#ff7f0e"/><line x1="0" y1="0" x2="705" y2="0" style="stroke: rgb(204, 204, 204);"/></g><g id="Carlo Azeglio Ciampi" transform="translate(0,263.8888888888889)"><text x="-4" y="6.944444444444445" text-anchor="end" dominant-baseline="middle" style="font-family: Arial, sans-serif; font-size: 10px; fill: black; font-weight: normal;">Carlo Azeglio Ciampi</text><rect x="418" y="0" width="8" height="13.88888888888889" fill="#ff7f0e"/><rect x="465" y="0" width="55" height="13.88888888888889" fill="#1f77b4"/><line x1="0" y1="0" x2="705" y2="0" style="stroke: rgb(204, 204, 204);"/></g><g id="Silvio Berlusconi" transform="translate(0,277.77777777777777)"><text x="-4" y="6.944444444444445" text-anchor="end" dominant-baseline="middle" style="font-family: Arial, sans-serif; font-size: 10px; fill: black; font-weight: normal;">Silvio Berlusconi</text><rect x="426" y="0" width="5" height="13.88888888888889" fill="#ff7f0e"/><rect x="481" y="0" width="31" height="13.88888888888889" fill="#ff7f0e"/><rect x="512" y="0" width="8" height="13.88888888888889" fill="#ff7f0e"/><rect x="535" y="0" width="28" height="13.88888888888889" fill="#ff7f0e"/><line x1="0" y1="0" x2="705" y2="0" style="stroke: rgb(204, 204, 204);"/></g><g id="Lamberto Dini" transform="translate(0,291.6666666666667)"><text x="-4" y="6.944444444444445" text-anchor="end" dominant-baseline="middle" style="font-family: Arial, sans-serif; font-size: 10px; fill: black; font-weight: normal;">Lamberto Dini</text><rect x="431" y="0" width="11" height="13.88888888888889" fill="#ff7f0e"/><line x1="0" y1="0" x2="705" y2="0" style="stroke: rgb(204, 204, 204);"/></g><g id="Romano Prodi" transform="translate(0,305.55555555555554)"><text x="-4" y="6.944444444444445" text-anchor="end" dominant-baseline="middle" style="font-family: Arial, sans-serif; font-size: 10px; fill: black; font-weight: normal;">Romano Prodi</text><rect x="442" y="0" width="19" height="13.88888888888889" fill="#ff7f0e"/><rect x="520" y="0" width="15" height="13.88888888888889" fill="#ff7f0e"/><line x1="0" y1="0" x2="705" y2="0" style="stroke: rgb(204, 204, 204);"/></g><g id="Massimo D'Alema" transform="translate(0,319.44444444444446)"><text x="-4" y="6.944444444444445" text-anchor="end" dominant-baseline="middle" style="font-family: Arial, sans-serif; font-size: 10px; fill: black; font-weight: normal;">Massimo D'Alema</text><rect x="461" y="0" width="9" height="13.88888888888889" fill="#ff7f0e"/><rect x="470" y="0" width="2" height="13.88888888888889" fill="#ff7f0e"/><line x1="0" y1="0" x2="705" y2="0" style="stroke: rgb(204, 204, 204);"/></g><g id="Mario Monti" transform="translate(0,333.33333333333337)"><text x="-4" y="6.944444444444445" text-anchor="end" dominant-baseline="middle" style="font-family: Arial, sans-serif; font-size: 10px; fill: black; font-weight: normal;">Mario Monti</text><rect x="563" y="0" width="11" height="13.88888888888889" fill="#ff7f0e"/><line x1="0" y1="0" x2="705" y2="0" style="stroke: rgb(204, 204, 204);"/></g><g id="Enrico Letta" transform="translate(0,347.22222222222223)"><text x="-4" y="6.944444444444445" text-anchor="end" dominant-baseline="middle" style="font-family: Arial, sans-serif; font-size: 10px; fill: black; font-weight: normal;">Enrico Letta</text><rect x="574" y="0" width="7" height="13.88888888888889" fill="#ff7f0e"/><line x1="0" y1="0" x2="705" y2="0" style="stroke: rgb(204, 204, 204);"/></g><g id="Matteo Renzi" transform="translate(0,361.11111111111114)"><text x="-4" y="6.944444444444445" text-anchor="end" dominant-baseline="middle" style="font-family: Arial, sans-serif; font-size: 10px; fill: black; font-weight: normal;">Matteo Renzi</text><rect x="581" y="0" width="22" height="13.88888888888889" fill="#ff7f0e"/><line x1="0" y1="0" x2="705" y2="0" style="stroke: rgb(204, 204, 204);"/></g><g id="Paolo Gentiloni" transform="translate(0,375)"><text x="-4" y="6.944444444444445" text-anchor="end" dominant-baseline="middle" style="font-family: Arial, sans-serif; font-size: 10px; fill: black; font-weight: normal;">Paolo Gentiloni</text><rect x="603" y="0" width="11" height="13.88888888888889" fill="#ff7f0e"/><line x1="0" y1="0" x2="705" y2="0" style="stroke: rgb(204, 204, 204);"/></g><g id="Giuseppe Conte" transform="translate(0,388.8888888888889)"><text x="-4" y="6.944444444444445" text-anchor="end" dominant-baseline="middle" style="font-family: Arial, sans-serif; font-size: 10px; fill: black; font-weight: normal;">Giuseppe Conte</text><rect x="614" y="0" width="10" height="13.88888888888889" fill="#ff7f0e"/><rect x="624" y="0" width="11" height="13.88888888888889" fill="#ff7f0e"/><line x1="0" y1="0" x2="705" y2="0" style="stroke: rgb(204, 204, 204);"/></g><g id="Oscar Luigi Scalfaro" transform="translate(0,402.77777777777777)"><text x="-4" y="6.944444444444445" text-anchor="end" dominant-baseline="middle" style="font-family: Arial, sans-serif; font-size: 10px; fill: black; font-weight: normal;">Oscar Luigi Scalfaro</text><rect x="411" y="0" width="54" height="13.88888888888889" fill="#1f77b4"/><line x1="0" y1="0" x2="705" y2="0" style="stroke: rgb(204, 204, 204);"/></g><g id="Giovanni Gronchi" transform="translate(0,416.6666666666667)"><text x="-4" y="6.944444444444445" text-anchor="end" dominant-baseline="middle" style="font-family: Arial, sans-serif; font-size: 10px; fill: black; font-weight: normal;">Giovanni Gronchi</text><rect x="120" y="0" width="55" height="13.88888888888889" fill="#1f77b4"/><line x1="0" y1="0" x2="705" y2="0" style="stroke: rgb(204, 204, 204);"/></g><g id="Giuseppe Saragat" transform="translate(0,430.55555555555554)"><text x="-4" y="6.944444444444445" text-anchor="end" dominant-baseline="middle" style="font-family: Arial, sans-serif; font-size: 10px; fill: black; font-weight: normal;">Giuseppe Saragat</text><rect x="196" y="0" width="55" height="13.88888888888889" fill="#1f77b4"/><line x1="0" y1="0" x2="705" y2="0" style="stroke: rgb(204, 204, 204);"/></g><g id="Giorgio Napolitano" transform="translate(0,444.44444444444446)"><text x="-4" y="6.944444444444445" text-anchor="end" dominant-baseline="middle" style="font-family: Arial, sans-serif; font-size: 10px; fill: black; font-weight: normal;">Giorgio Napolitano</text><rect x="520" y="0" width="68" height="13.88888888888889" fill="#1f77b4"/><line x1="0" y1="0" x2="705" y2="0" style="stroke: rgb(204, 204, 204);"/></g><g id="Sandro Pertini" transform="translate(0,458.33333333333337)"><text x="-4" y="6.944444444444445" text-anchor="end" dominant-baseline="middle" style="font-family: Arial, sans-serif; font-size: 10px; fill: black; font-weight: normal;">Sandro Pertini</text><rect x="302" y="0" width="54" height="13.88888888888889" fill="#1f77b4"/><line x1="0" y1="0" x2="705" y2="0" style="stroke: rgb(204, 204, 204);"/></g><g id="Luigi Einaudi" transform="translate(0,472.22222222222223)"><text x="-4" y="6.944444444444445" text-anchor="end" dominant-baseline="middle" style="font-family: Arial, sans-serif; font-size: 10px; fill: black; font-weight: normal;">Luigi Einaudi</text><rect x="65" y="0" width="55" height="13.88888888888889" fill="#1f77b4"/><line x1="0" y1="0" x2="705" y2="0" style="stroke: rgb(204, 204, 204);"/></g><g id="Enrico de Nicola" transform="translate(0,486.11111111111114)"><text x="-4" y="6.944444444444445" text-anchor="end" dominant-baseline="middle" style="font-family: Arial, sans-serif; font-size: 10px; fill: black; font-weight: normal;">Enrico de Nicola</text><rect x="63" y="0" width="2" height="13.88888888888889" fill="#1f77b4"/><line x1="0" y1="0" x2="705" y2="0" style="stroke: rgb(204, 204, 204);"/></g></g></g></svg>