<?xml version="1.0" encoding="utf-8"?>
<!-- Generator: Adobe Illustrator 16.0.0, SVG Export Plug-In . SVG Version: 6.00 Build 0)  -->
<!DOCTYPE svg PUBLIC "-//W3C//DTD SVG 1.1//EN" "http://www.w3.org/Graphics/SVG/1.1/DTD/svg11.dtd">
<svg version="1.1" id="Capa_1" xmlns="http://www.w3.org/2000/svg" xmlns:xlink="http://www.w3.org/1999/xlink" x="0px" y="0px"
	 width="2834.65px" height="2834.65px" viewBox="0 0 2834.65 2834.65" enable-background="new 0 0 2834.65 2834.65"
	 xml:space="preserve">
<g>
	<path fill="#211A13" d="M1405.719,1116.345c-379.651,0-698.153,104.367-785.01,245.089
		c98.323,134.417,412.059,232.718,783.944,232.718c373.341,0,688.063-99.076,785.071-234.299
		C2101.466,1219.934,1783.96,1116.345,1405.719,1116.345z"/>
	<path fill="#332513" d="M623.71,1365.436c86.857-140.722,405.358-245.089,785.01-245.089
		c378.243,0,695.749,103.589,784.007,243.508c9.34-13.012,16.702-26.354,21.861-39.978c0.407,1.065,0.762,2.139,1.143,3.208
		c-25.202-169.003-376.874-302.958-807.011-302.958c-429.646,0-781.014,133.658-806.915,302.396
		C607.114,1339.777,614.442,1352.769,623.71,1365.436z"/>
	<g>
		<path fill="#CC3117" d="M2194.936,1366.93c0,160.411-348.91,311.821-752.95,311.821c-404.04,0-907.448-201.733-816.065-333.57
			c22.812-32.91,32.88-100.631,129.92-100.631c51.418,0,131.515-16.616,173.096-35.619c83.748-38.273,162.938-59.317,282.897-40.475
			c66.929,10.513,144.188,30.217,232.024,25.089c103.607-6.049,192.629-44.533,269.097-43.81
			c123.117,1.166,213.691,51.546,280.207,67.812c68.393,16.725,111.348-0.274,138.086,29.168
			C2161.168,1279.664,2194.936,1318.504,2194.936,1366.93z"/>
		<g>
			<path fill="#641C10" d="M1072.388,1424.953c-30.803-32.564,2.325-56.466,35.82-88.148c33.495-31.685,50.279,0.32,123.25-25.539
				c42.25-14.972,0.226,132.238-42.648,115.281C1127.609,1402.342,1103.192,1457.516,1072.388,1424.953z"/>
			<path fill="#641C10" d="M783.529,1340.534c0-57.995,82.789-159.068,108.011-105.01c36.003,77.165,108.011,47.015,108.011,105.01"
				/>
			<path fill="#641C10" d="M1249.758,1151.098c51.107,27.415,69.679,92.253,41.48,144.82s-56.412-92.293-99.325-53.28
				c-49.461,44.967-145.31-49.325-85.75-45.998C1191.182,1201.39,1198.652,1123.683,1249.758,1151.098z"/>
			<path fill="#641C10" d="M1597.299,1312.794c42.266,22.673,99.504,49.141,64.619,84.024
				c-82.034,82.034-249.553,21.552-210.922-6.875c32.271-23.747,17.549-18.339,65.768-28.765
				C1579.884,1347.532,1555.034,1290.122,1597.299,1312.794z"/>
			<path fill="#641C10" d="M1543.835,1257.328c-10.935-58.643,112.181-29.402,121.206-86.691
				c10.403-66.031,133.776,13.492,85.257,48.196"/>
			<path fill="#641C10" d="M2091.472,1268.028c51.107,27.415,0.078,49.033-28.121,101.601
				c-28.197,52.567-105.873-47.326-148.785-8.313c-49.461,44.967-95.85-94.292-36.289-90.965
				C1963.294,1275.101,2040.366,1240.613,2091.472,1268.028z"/>
			<path fill="#641C10" d="M1716.625,1594.089c-2.053-140.267,191.533-234.627,183.648-177.17
				c-6.587,47.997,62.218,40.157,18.337,80.566"/>
			<path fill="#641C10" d="M1304.694,1470.242c41.744,22.393,98.276,48.532,63.821,82.986
				c-81.021,81.021-246.47,21.285-208.316-6.791c31.872-23.453-11.875-59.308,36.774-56.59
				C1266.414,1493.727,1262.952,1447.85,1304.694,1470.242z"/>
			<path fill="#641C10" d="M2011.907,1473.705c-1.691-44.793,38.975-40.923,85.047-42.663c46.074-1.74,37.594,33.39,109.508,62.055
				c41.639,16.598-87.012,99.578-108.069,58.562C2068.334,1493.11,2013.6,1518.497,2011.907,1473.705z"/>
			<path fill="#641C10" d="M795.419,1654.754c-57.987-1.06-22.455-43.59-21.364-103.233c1.088-59.643,115.802-6.228,136.17-60.528
				c23.477-62.588,128.325,40.134,73.815,64.365C906.231,1589.944,853.404,1655.813,795.419,1654.754z"/>
			<path fill="#641C10" d="M1532.542,1744.252c-57.959-2.064-103.223-52.064-101.1-111.68c2.124-59.615,91.334,57.951,112.643,4.012
				c24.559-62.171,152.168-19.818,97.246,3.464C1562.933,1673.281,1590.501,1746.316,1532.542,1744.252z"/>
			<path fill="#641C10" d="M719.155,1442.072c27.889-91.694-58.854-166.808-64.811-127.899
				c-4.976,32.502-46.604,16.741-26.771,50.02"/>
			<path fill="#641C10" d="M1077.28,1421.322c-30.803-32.564,2.325-56.466,35.82-88.148c33.495-31.685,50.279,0.32,123.25-25.539
				c42.25-14.972,0.226,132.238-42.648,115.281C1132.501,1398.711,1108.084,1453.885,1077.28,1421.322z"/>
			<path fill="#641C10" d="M788.421,1336.903c0-57.995,82.789-159.068,108.011-105.01c36.003,77.165,108.011,47.015,108.011,105.01"
				/>
			<path fill="#641C10" d="M1254.65,1147.467c51.107,27.415,69.679,92.253,41.48,144.82s-56.412-92.293-99.325-53.28
				c-49.461,44.967-145.31-49.325-85.75-45.998C1196.074,1197.759,1203.544,1120.052,1254.65,1147.467z"/>
			<path fill="#641C10" d="M1602.195,1309.163c42.266,22.673,99.504,49.141,64.619,84.024
				c-82.034,82.034-249.557,21.552-210.926-6.875c32.274-23.747,17.553-18.339,65.771-28.765
				C1584.78,1343.901,1559.931,1286.491,1602.195,1309.163z"/>
			<path fill="#641C10" d="M1548.731,1253.697c-10.935-58.643,112.181-29.402,121.206-86.691
				c10.403-66.031,133.776,13.492,85.257,48.196"/>
			<path fill="#641C10" d="M2096.368,1264.397c51.107,27.415,0.078,49.033-28.121,101.601
				c-28.197,52.567-105.873-47.326-148.785-8.313c-49.461,44.967-95.85-94.292-36.289-90.965
				C1968.19,1271.47,2045.263,1236.982,2096.368,1264.397z"/>
			<path fill="#641C10" d="M1721.521,1590.458c-2.053-140.267,191.533-234.627,183.648-177.17
				c-6.587,47.997,62.218,40.157,18.337,80.566"/>
			<path fill="#641C10" d="M1309.586,1466.611c41.744,22.393,98.275,48.532,63.821,82.986
				c-81.021,81.021-246.47,21.285-208.316-6.791c31.872-23.453-11.875-59.308,36.774-56.59
				C1271.306,1490.096,1267.844,1444.219,1309.586,1466.611z"/>
			<path fill="#641C10" d="M2016.804,1470.074c-1.691-44.793,38.975-40.923,85.047-42.663c46.074-1.74,37.594,33.39,109.508,62.055
				c41.639,16.598-87.012,99.578-108.069,58.562C2073.23,1489.479,2018.496,1514.866,2016.804,1470.074z"/>
			<path fill="#641C10" d="M800.312,1651.123c-57.987-1.06-22.455-43.59-21.364-103.233c1.088-59.643,115.802-6.228,136.17-60.528
				c23.477-62.588,128.325,40.134,73.815,64.365C911.123,1586.313,858.296,1652.183,800.312,1651.123z"/>
			<path fill="#641C10" d="M1537.438,1740.621c-57.959-2.064-103.227-52.064-101.104-111.68s91.338,57.951,112.646,4.012
				c24.559-62.171,152.168-19.818,97.246,3.464C1567.829,1669.65,1595.397,1742.686,1537.438,1740.621z"/>
			<path fill="#641C10" d="M724.047,1438.441c27.889-91.694-58.854-166.808-64.811-127.899
				c-4.976,32.502-46.604,16.741-26.771,50.02"/>
		</g>
		<g>
			<path fill="#992A16" d="M1540.779,1259.144c-10.935-58.643,112.181-29.402,121.206-86.691
				c10.403-66.031,133.776,13.492,85.257,48.196"/>
			<g>
				<path fill="#992A16" d="M1073.837,1425.824c-30.803-32.564,2.325-56.466,35.82-88.148c33.495-31.685,50.279,0.32,123.25-25.539
					c42.25-14.972,0.226,132.238-42.648,115.281C1129.058,1403.213,1104.641,1458.387,1073.837,1425.824z"/>
				<path fill="#992A16" d="M784.978,1341.405c0-57.995,82.789-159.068,108.011-105.01c36.003,77.165,108.011,47.015,108.011,105.01
					"/>
				<path fill="#992A16" d="M1251.207,1151.969c51.107,27.415,69.679,92.253,41.48,144.82s-56.412-92.293-99.325-53.28
					c-49.461,44.967-145.31-49.325-85.75-45.998C1192.631,1202.261,1200.101,1124.554,1251.207,1151.969z"/>
				<path fill="#992A16" d="M1598.747,1313.665c42.266,22.673,99.504,49.141,64.619,84.024
					c-82.034,82.034-249.553,21.552-210.922-6.875c32.271-23.747,17.549-18.339,65.768-28.765
					C1581.332,1348.403,1556.482,1290.993,1598.747,1313.665z"/>
				<path fill="#992A16" d="M2092.92,1268.899c51.107,27.415,0.078,49.033-28.121,101.601
					c-28.197,52.567-105.873-47.326-148.785-8.313c-49.461,44.967-95.85-94.292-36.289-90.965
					C1964.742,1275.972,2041.814,1241.484,2092.92,1268.899z"/>
				<path fill="#992A16" d="M1718.073,1594.96c-2.053-140.267,191.533-234.627,183.648-177.17
					c-6.587,47.997,62.218,40.157,18.337,80.566"/>
				<path fill="#992A16" d="M1306.143,1471.113c41.744,22.393,98.275,48.532,63.821,82.986
					c-81.021,81.021-246.47,21.285-208.316-6.791c31.872-23.453-11.875-59.308,36.774-56.59
					C1267.863,1494.598,1264.4,1448.721,1306.143,1471.113z"/>
				<path fill="#992A16" d="M2013.355,1474.576c-1.691-44.793,38.975-40.923,85.047-42.663c46.074-1.74,37.594,33.39,109.508,62.055
					c41.639,16.598-87.012,99.578-108.069,58.562C2069.782,1493.981,2015.048,1519.368,2013.355,1474.576z"/>
				<path fill="#992A16" d="M796.868,1655.625c-57.987-1.06-22.455-43.59-21.364-103.233c1.088-59.643,115.802-6.228,136.17-60.528
					c23.477-62.588,128.325,40.134,73.815,64.365C907.68,1590.815,854.853,1656.685,796.868,1655.625z"/>
				<path fill="#992A16" d="M1533.99,1745.123c-57.959-2.064-103.223-52.064-101.1-111.68c2.124-59.615,91.334,57.951,112.643,4.012
					c24.559-62.171,152.168-19.818,97.246,3.464C1564.381,1674.152,1591.949,1747.188,1533.99,1745.123z"/>
				<path fill="#992A16" d="M720.604,1442.943c27.889-91.694-58.854-166.808-64.811-127.899
					c-4.976,32.502-46.604,16.741-26.771,50.02"/>
			</g>
		</g>
	</g>
	<g>
		<path fill="#815A26" d="M2245.813,1986.531c-14.885-415.485,0.8-578.628-22.136-608.82
			c-25.399,169.008-380.357,302.978-814.519,302.978c-424.93,0-773.984-128.335-812.449-292.25
			c-28.227,27.511-32.856,181.696-83.224,598.093c-24.702,204.218,387.797,372.464,866.158,372.464
			C1858.017,2358.995,2253.172,2192.105,2245.813,1986.531z M2218.702,2004.629c0,43.514-39.689,100.799-74.51,122.729
			c-271.438,170.988-47.74-77.034-31.043-117.22c69.966-168.37,47.198-514.703,88.346-514.703
			C2242.647,1495.436,2218.702,1961.114,2218.702,2004.629z"/>
		<path fill="#67481E" d="M1409.159,1680.688c434.161,0,789.114-133.97,814.519-302.978c0.967-6.422,1.468-12.891,1.468-19.406
			c0-15.241-2.73-30.226-7.911-44.903c-0.381-1.068-0.735-2.143-1.143-3.207c-5.159,13.625-12.521,26.965-21.861,39.977
			c-97.008,135.224-411.73,234.3-785.071,234.3c-371.886,0-685.621-98.301-783.944-232.718
			c-9.265-12.668-16.597-25.656-21.905-38.914c-0.352-0.883-0.744-1.762-1.078-2.645c-5.946,15.696-9.055,31.759-9.055,48.11
			c0,10.163,1.206,20.212,3.533,30.136C635.175,1552.354,984.229,1680.688,1409.159,1680.688z"/>
		<path fill="#67481E" d="M2201.495,1495.44c-41.147,0-18.38,346.328-88.346,514.698c-16.697,40.186-240.395,288.208,31.043,117.22
			c34.82-21.931,74.51-79.216,74.51-122.729C2218.702,1961.114,2242.647,1495.44,2201.495,1495.44z"/>
	</g>
	<g>
		<path fill="none" d="M424.611,826.619c11.586,12.666,25.933,20.5,39.539,22.806c11.418,1.719,22.364-0.641,31.114-7.305
			c19.046-14.5,14.093-48.853-8.027-73.148c-21.69-23.826-49.89-31.764-68.415-17.968c-0.046,0.035-0.094,0.068-0.141,0.104
			c-0.345,0.26-0.679,0.542-1.017,0.817c-0.373,0.31-0.75,0.615-1.111,0.943c-17.846,16.248-14.298,49.199,7.921,73.605
			c0.02,0.022,0.041,0.042,0.062,0.064c-0.02-0.021-0.04-0.042-0.06-0.063C424.521,826.525,424.566,826.57,424.611,826.619z"/>
		<path fill="#3D2B15" d="M1088.786,1450.877c0.298-0.477,0.603-0.943,0.911-1.404c-47.844-59.559-99.99-127.43-160.137-193.498
			C752.247,1061.21,651.172,955.734,599.42,893.347c-20.554-24.779-34.724-42.241-45.301-53.572c-0.109,0.3-0.219,0.598-0.331,0.896
			c-3.698,10.313-9.417,19.711-17.191,27.633c-5.438,5.764-11.021,9.908-15.688,12.18c-8.975,5.201-18.927,8.454-29.377,9.837
			c7.569,12.981,20.795,29.74,42.28,51.543c74.351,75.464,198.559,218.099,339.66,373.087
			c35.272,38.742,71.336,74.439,106.27,107.754C994.757,1374.527,1058.812,1498.896,1088.786,1450.877z"/>
		<path fill="#714F21" d="M542.611,752.401c7.398,13.683,14.025,32.151,15.946,49.742
			C557.229,785.549,551.878,768.429,542.611,752.401z"/>
		<path fill="#714F21" d="M418.681,751.108c0.046-0.035,0.094-0.068,0.141-0.104C418.775,751.039,418.728,751.073,418.681,751.108z"
			/>
		<path fill="#714F21" d="M424.611,826.619c11.96,13.076,26.078,20.781,39.539,22.806
			C450.543,847.119,436.197,839.285,424.611,826.619z"/>
		<path fill="#714F21" d="M520.885,880.495c-69.488,33.742,13.88-50.019-6.136-79.291c-2.289-3.347-4.444-6.554-6.484-9.64
			c7.726,18.812,6.435,38.897-11.26,55.007c-17.668,16.085-50.352,4.214-72.47-20.033c-0.021-0.022-0.042-0.042-0.062-0.064
			c-22.219-24.406-25.767-57.357-7.921-73.605c0.361-0.329,0.738-0.633,1.111-0.943c-0.854,0.694-1.694,1.42-2.501,2.211
			c17.629-17.284,47.912-19.677,76.043,11.221c0.839,0.921,1.654,1.859,2.457,2.805c-44.041-76.11,20.213-37.012,29.635-36.923
			c2.527,0.024,5.656,2.183,9,5.888c-2.116-2.711-4.351-5.374-6.717-7.972c-41.057-45.096-104.034-54.625-140.662-21.278
			c-36.628,33.346-33.035,96.935,8.024,142.033c27.809,30.546,65.669,44.767,98.589,40.41c10.45-1.383,20.403-4.636,29.377-9.837
			C520.902,880.486,520.893,880.491,520.885,880.495z"/>
		<path fill="#714F21" d="M553.789,840.67c-4.267,11.327-10.62,20.667-17.191,27.633
			C544.372,860.381,550.091,850.983,553.789,840.67z"/>
		<path fill="#68481E" d="M523.297,731.24c-9.422-0.089-73.675-39.188-29.635,36.923c6.176,7.271,11.241,15.214,14.603,23.401
			c2.04,3.086,4.195,6.293,6.484,9.64c20.017,29.272-63.352,113.033,6.136,79.291c0.007-0.004,0.017-0.009,0.024-0.012
			c4.667-2.271,10.25-6.416,15.688-12.18c6.571-6.966,12.925-16.306,17.191-27.633c0.112-0.297,0.222-0.596,0.331-0.896
			c3.953-10.873,5.976-23.521,4.441-37.607c-0.001-0.008-0.002-0.016-0.003-0.024c-1.921-17.59-8.548-36.059-15.946-49.742
			c-3.403-6.293-6.966-11.564-10.314-15.274C528.953,733.423,525.825,731.264,523.297,731.24z"/>
		<path fill="#3D2B15" d="M493.663,768.163c-0.803-0.945-1.618-1.883-2.457-2.805c-28.131-30.898-58.414-28.505-76.043-11.221
			c0.808-0.792,1.647-1.517,2.501-2.211c0.338-0.275,0.672-0.558,1.017-0.817c0.047-0.035,0.094-0.069,0.141-0.104
			c18.525-13.796,46.724-5.858,68.415,17.968c22.12,24.295,27.074,58.648,8.027,73.148c-8.75,6.664-19.696,9.023-31.114,7.305
			c-13.461-2.025-27.579-9.73-39.539-22.806c-0.045-0.049-0.09-0.094-0.135-0.144c0.02,0.021,0.04,0.042,0.06,0.063
			c22.118,24.247,54.801,36.118,72.47,20.033c17.695-16.11,18.986-36.196,11.26-55.007
			C504.903,783.376,499.839,775.433,493.663,768.163z"/>
	</g>
</g>
</svg>
