<svg xmlns="http://www.w3.org/2000/svg" width="805" height="600"><rect width="805" height="600" x="0" y="0" fill="#FFFFFF" id="backgorund"/><g id="viz" transform="translate(402.5,300)"><g id="cells"><path d="M-167.4315780649916,-171.69050689953042L-167.43157806499158,-85.71910541174832L-164.21116944776566,-84.48244340150379L-101.23111987759698,-141.9325540045371z" fill="rgb(248, 142, 83)" stroke="#FFFFFF" stroke-width="2" id="Citrus"/><path d="M-163.09982970201227,-59.58572668380468L-167.43157806499158,-58.217809021367934L-167.43157806499156,20.38694453448159L-155.25760156951088,21.913835637232594L-115.60620116820132,-14.204759948909496z" fill="rgb(224, 243, 161)" stroke="#FFFFFF" stroke-width="2" id="Tree Fruits"/><path d="M188.0220508272044,-84.77875167466136L155.49259184768087,-62.42512112222396L151.8083406381746,-36.458969141905186L213.62547022362162,-69.99661059396502z" fill="rgb(254, 221, 141)" stroke="#FFFFFF" stroke-width="2" id="Tropical Fruits"/><path d="M-167.43157806499153,87.85884553781052L-145.86654130445314,80.35442145160755L-155.25760156951088,21.913835637232594L-167.43157806499156,20.38694453448159z" fill="rgb(169, 221, 162)" stroke="#FFFFFF" stroke-width="2" id="Red Berries"/><path d="M-71.30858012362216,-152.10436203109714L-83.51750106501383,-144.41391071111346L-72.28194782533814,-141.41184809860692z" fill="rgb(158, 1, 66)" stroke="#FFFFFF" stroke-width="2" id="Honeysuckle"/><path d="M-167.43157806499147,290L-133.6596295950153,270.5017564598011L-155.4729094792067,240.49189002643246L-167.4315780649915,242.61711491735005z" fill="rgb(158, 1, 66)" stroke="#FFFFFF" stroke-width="2" id="Hawthorn"/><path d="M83.75134105427809,-8.396440061102703L49.89656119482602,53.282991571153445L76.69511835546868,96.69282309131327L132.47716073547699,116.84760892122836L178.07496396536112,90.52170495199918L186.80686656866854,70.15095446444424L142.98817326951058,-11.81175544068736L128.3628877125542,-15.942731880780489z" fill="rgb(158, 1, 66)" stroke="#FFFFFF" stroke-width="2" id="Orange Blossom"/><path d="M139.93688407279694,-24.08521764163157L144.85602818856577,-19.823472921391776L149.61287862380357,-33.074301835383224z" fill="rgb(158, 1, 66)" stroke="#FFFFFF" stroke-width="2" id="Linden"/><path d="M-167.4315780649915,205.1526860605103L-152.5672487642749,183.19495071806992L-167.4315780649915,175.13761244404208z" fill="rgb(158, 1, 66)" stroke="#FFFFFF" stroke-width="2" id="Jasmine"/><path d="M-167.43157806499164,-72.81224848599008L-164.86387781855774,-72.8654678999164L-164.21116944776566,-84.48244340150379L-167.43157806499158,-85.71910541174833z" fill="rgb(158, 1, 66)" stroke="#FFFFFF" stroke-width="2" id="Acacia"/><path d="M64.18834262770186,-156.27417643839368L65.90982949371178,-139.4035877836201L73.10733630849742,-142.18277079285843L74.77330830721388,-150.16294365396448z" fill="rgb(158, 1, 66)" stroke="#FFFFFF" stroke-width="2" id="Violet"/><path d="M32.84932654624563,-73.73839991002853L33.97739721869172,-89.14898389711219L13.037145711542646,-78.07728064181481z" fill="rgb(158, 1, 66)" stroke="#FFFFFF" stroke-width="2" id="Lavender"/><path d="M-152.35498788491736,234.6634793996805L-167.4315780649915,217.0950124916979L-167.4315780649914,242.61711491735002L-155.4729094792067,240.49189002643246z" fill="rgb(158, 1, 66)" stroke="#FFFFFF" stroke-width="2" id="Rose"/><path d="M213.62547022362162,-69.99661059396502L151.8083406381746,-36.458969141905186L149.61287862380357,-33.074301835383224L144.85602818856577,-19.823472921391776L142.98817326951058,-11.81175544068736L186.80686656866854,70.15095446444424L187.1305153798163,70.26110966568041L205.44025164696814,74.72234874257184L271.8679604723868,36.37029317056627L277.4688099693063,24.098672446997405L276.37067479694497,-33.77064984319866z" fill="rgb(252, 172, 99)" stroke="#FFFFFF" stroke-width="2" id="Vegetables"/><path d="M3.1583334592637415,-76.90380818276594L-31.000800466688297,-61.85832086890561L-55.925563309301424,-23.160576772966824L-57.62039919823048,-7.834225877610015L-27.63055660112649,50.17092156957381L-14.968853774904478,56.9864880773892L49.89656119482602,53.282991571153445L83.75134105427809,-8.396440061102703L32.84932654624563,-73.73839991002853L13.037145711542646,-78.07728064181481z" fill="rgb(228, 86, 73)" stroke="#FFFFFF" stroke-width="2" id="Fresh Herbs"/><path d="M-164.86387781855774,-72.8654678999164L-167.43157806499158,-72.81224848599008L-167.43157806499158,-58.21780902136793L-163.09982970201227,-59.58572668380468z" fill="rgb(66, 136, 181)" stroke="#FFFFFF" stroke-width="2" id="Dried Herbs"/><path d="M-60.242464293581136,101.78550773106082L-108.0157695672848,110.45890104285994L-127.10289218082882,133.4685754344535L-131.63753050594633,145.58222074488455L-132.26399249898625,177.75022661817215L-107.45185260873993,217.75947532845032L-65.69005184587544,231.25950244963L3.569495026464473,191.27248441893306L-46.27285351644372,106.19420256889833z" fill="rgb(209, 60, 75)" stroke="#FFFFFF" stroke-width="2" id="Leaves"/><path d="M-167.43157806499164,-262.17639736669497L-145.07833605634875,-277.0943497090492L-167.43157806499164,-290z" fill="rgb(240, 112, 74)" stroke="#FFFFFF" stroke-width="2" id="Young White Wine"/><path d="M193.5099367322323,81.61031927011169L187.1305153798163,70.26110966568041L186.80686656866854,70.15095446444424L178.0749639653611,90.52170495199921z" fill="rgb(253, 198, 118)" stroke="#FFFFFF" stroke-width="2" id="Aged White Wine"/><path d="M334.86315612998294,0L317.6720088444432,-9.925313512984872L317.6975281195513,-7.439446372493562L328.9556612573628,3.410693754943547z" fill="rgb(74, 108, 174)" stroke="#FFFFFF" stroke-width="2" id="Aged Red Wine"/><path d="M-112.08073603566777,225.8211783314957L-107.45185260873993,217.75947532845032L-132.26399249898625,177.75022661817215L-152.5672487642749,183.19495071806992L-167.4315780649915,205.1526860605103L-167.4315780649915,217.0950124916979L-152.35498788491736,234.6634793996805z" fill="rgb(158, 1, 66)" stroke="#FFFFFF" stroke-width="2" id="Bread"/><path d="M286.0009240230942,28.21062286011817L277.4688099693063,24.098672446997405L271.86796047238687,36.370293170566235z" fill="rgb(158, 1, 66)" stroke="#FFFFFF" stroke-width="2" id="Yoghurt"/><path d="M-108.0157695672848,110.45890104285994L-145.86654130445314,80.35442145160755L-167.43157806499153,87.85884553781052L-167.43157806499153,120.17927835908428L-127.10289218082882,133.4685754344535z" fill="rgb(158, 1, 66)" stroke="#FFFFFF" stroke-width="2" id="Butter"/><path d="M-112.08073603566777,225.8211783314957L-102.95116052321416,252.7722135747954L-65.69005184587542,231.25950244963L-107.45185260873993,217.75947532845032z" fill="rgb(158, 1, 66)" stroke="#FFFFFF" stroke-width="2" id="Smoked"/><path d="M-27.63055660112649,50.17092156957381L-31.26738233922121,69.55562524442473L-14.968853774904478,56.9864880773892z" fill="rgb(158, 1, 66)" stroke="#FFFFFF" stroke-width="2" id="Coffee"/><path d="M188.02205082720442,-84.77875167466136L148.5717847953982,-107.555373387727L155.49259184768087,-62.42512112222396z" fill="rgb(158, 1, 66)" stroke="#FFFFFF" stroke-width="2" id="Toast"/><path d="M-167.43157806499153,147.47451456830106L-131.63753050594633,145.58222074488455L-127.10289218082882,133.4685754344535L-167.43157806499153,120.17927835908426z" fill="rgb(200, 233, 159)" stroke="#FFFFFF" stroke-width="2" id="Woods"/><path d="M276.37067479694497,-33.770649843198655L277.4688099693063,24.098672446997405L286.0009240230942,28.210622860118164L312.6092222677089,12.848314705912063L317.6975281195513,-7.439446372493562L317.6720088444432,-9.925313512984875z" fill="rgb(185, 31, 72)" stroke="#FFFFFF" stroke-width="2" id="Nuts"/><path d="M83.75134105427809,-8.396440061102703L128.3628877125542,-15.942731880780489L139.93688407279694,-24.08521764163157L149.61287862380357,-33.074301835383224L151.8083406381746,-36.458969141905186L155.49259184768087,-62.42512112222396L148.5717847953982,-107.55537338772703L83.5600656931054,-145.08990691191607L73.10733630849742,-142.18277079285843L65.90982949371178,-139.4035877836201L33.97739721869172,-89.14898389711219L32.84932654624563,-73.73839991002853z" fill="rgb(158, 1, 66)" stroke="#FFFFFF" stroke-width="2" id="Dry Apricot"/><path d="M-60.242464293581136,101.78550773106082L-41.089543508908086,85.5174363470648L-31.26738233922121,69.55562524442473L-27.63055660112649,50.17092156957381L-57.62039919823048,-7.834225877610015L-70.97418218777358,-14.756330390563837L-115.60620116820132,-14.204759948909496L-155.25760156951088,21.913835637232594L-145.86654130445314,80.35442145160755L-108.0157695672848,110.45890104285994z" fill="rgb(158, 1, 66)" stroke="#FFFFFF" stroke-width="2" id="Orange Peel"/><path d="M328.9556612573628,3.4106937549435656L317.6975281195513,-7.439446372493562L312.6092222677089,12.84831470591201z" fill="rgb(158, 1, 66)" stroke="#FFFFFF" stroke-width="2" id="Prune"/><path d="M-102.95116052321416,252.7722135747954L-112.08073603566777,225.8211783314957L-152.35498788491736,234.6634793996805L-155.4729094792067,240.49189002643246L-133.6596295950153,270.5017564598011z" fill="rgb(158, 1, 66)" stroke="#FFFFFF" stroke-width="2" id="Honey"/><path d="M128.3628877125542,-15.942731880780489L142.98817326951058,-11.81175544068736L144.85602818856577,-19.823472921391776L139.93688407279694,-24.08521764163157z" fill="rgb(158, 1, 66)" stroke="#FFFFFF" stroke-width="2" id="Chocolate"/><path d="M83.56006569310539,-145.08990691191607L74.77330830721391,-150.16294365396453L73.10733630849742,-142.18277079285843z" fill="rgb(158, 1, 66)" stroke="#FFFFFF" stroke-width="2" id="Animal"/><path d="M205.44025164696814,74.72234874257184L187.1305153798163,70.26110966568041L193.50993673223226,81.6103192701116z" fill="rgb(158, 1, 66)" stroke="#FFFFFF" stroke-width="2" id="Leather"/><path d="M-60.242464293581136,101.78550773106082L-46.27285351644372,106.19420256889833L-41.089543508908086,85.5174363470648z" fill="rgb(158, 1, 66)" stroke="#FFFFFF" stroke-width="2" id="Musk"/><path d="M-42.30964515792267,-217.7608183545775L-41.251419864966905,-201.48683585627538L-37.161184743062755,-203.4728115009957L-33.66357960278412,-212.7690100788871z" fill="rgb(158, 1, 66)" stroke="#FFFFFF" stroke-width="2" id="Corked"/><path d="M-30.69641449926589,-83.92880583071427L-31.000800466688297,-61.85832086890561L3.1583334592637415,-76.90380818276594z" fill="rgb(158, 1, 66)" stroke="#FFFFFF" stroke-width="2" id="Sherry"/><path d="M-70.97418218777358,-14.756330390563837L-57.62039919823048,-7.834225877610015L-55.925563309301424,-23.160576772966824z" fill="rgb(158, 1, 66)" stroke="#FFFFFF" stroke-width="2" id="Madeira"/><path d="M70.46630293540716,152.6495943647783L76.69511835546868,96.69282309131327L49.89656119482602,53.282991571153445L-14.968853774904478,56.9864880773892L-31.26738233922121,69.55562524442473L-41.089543508908086,85.5174363470648L-46.27285351644372,106.19420256889833L3.569495026464473,191.27248441893306z" fill="rgb(254, 238, 163)" stroke="#FFFFFF" stroke-width="2" id="Ethyl Acetate"/><path d="M-131.63753050594633,145.58222074488455L-167.43157806499153,147.47451456830106L-167.4315780649915,175.13761244404208L-152.5672487642749,183.19495071806992L-132.26399249898625,177.75022661817215z" fill="rgb(94, 79, 162)" stroke="#FFFFFF" stroke-width="2" id="Acetic Acid"/><path d="M-30.69641449926589,-83.92880583071427L-72.28194782533814,-141.41184809860692L-83.51750106501383,-144.41391071111346L-101.23111987759698,-141.9325540045371L-164.21116944776566,-84.48244340150379L-164.86387781855774,-72.8654678999164L-163.09982970201227,-59.58572668380468L-115.60620116820132,-14.204759948909496L-70.97418218777358,-14.756330390563837L-55.925563309301424,-23.160576772966824L-31.000800466688297,-61.85832086890561z" fill="rgb(78, 164, 176)" stroke="#FFFFFF" stroke-width="2" id="Dimethyl Sulfide"/><path d="M132.47716073547699,116.84760892122836L76.69511835546868,96.69282309131327L70.46630293540717,152.6495943647783z" fill="rgb(241, 249, 171)" stroke="#FFFFFF" stroke-width="2" id="Ethyl Mercaptan"/><path d="M-30.69641449926589,-83.92880583071427L3.1583334592637415,-76.90380818276594L13.037145711542646,-78.07728064181481L33.97739721869172,-89.14898389711219L65.90982949371178,-139.4035877836201L64.18834262770186,-156.27417643839374L-25.663481773906653,-208.15015144384137L-37.161184743062755,-203.4728115009957L-41.251419864966905,-201.48683585627538L-71.30858012362216,-152.10436203109714L-72.28194782533814,-141.41184809860692z" fill="rgb(137, 207, 165)" stroke="#FFFFFF" stroke-width="2" id="Hudrogen Sulfide"/><path d="M-33.663579602784125,-212.76901007888705L-37.161184743062755,-203.4728115009957L-25.663481773906653,-208.15015144384137z" fill="rgb(105, 189, 169)" stroke="#FFFFFF" stroke-width="2" id="Sulfer Dioxide"/><path d="M-71.30858012362216,-152.10436203109714L-41.251419864966905,-201.48683585627538L-42.30964515792267,-217.7608183545775L-145.0783360563487,-277.0943497090492L-167.43157806499164,-262.1763973666949L-167.43157806499158,-171.6905068995304L-101.23111987759698,-141.9325540045371L-83.51750106501383,-144.41391071111346z" fill="rgb(251, 248, 176)" stroke="#FFFFFF" stroke-width="2" id="Ethyl-phenol"/><path d="M-167.43157806499164,-290L-167.43157806499147,290L334.86315612998294,-2.842170943040401e-14z" fill="none" stroke="#FFFFFF" stroke-width="4"/></g><g id="labels"><text text-anchor="middle" dominant-baseline="text-before-edge" transform="translate(-145.66609658833298,-136.98397636543223)"><tspan x="3" y="0.2em" style="font-family: Arial, sans-serif; font-size: 10px; fill: black; font-weight: bold;">Fruits White Wine</tspan></text><text text-anchor="middle" dominant-baseline="text-before-edge" transform="translate(-150.0326335810233,-22.39868269118113)"><tspan x="3" y="0.2em" style="font-family: Arial, sans-serif; font-size: 10px; fill: black; font-weight: bold;">Fruits White Wine,Fruits Red Wine</tspan></text><text text-anchor="middle" dominant-baseline="text-before-edge" transform="translate(178.87449752777616,-68.78900883522567)"><tspan x="3" y="0.2em" style="font-family: Arial, sans-serif; font-size: 10px; fill: black; font-weight: bold;">Fruits White Wine</tspan></text><text text-anchor="middle" dominant-baseline="text-before-edge" transform="translate(-159.2478539859072,51.07471459799312)"><tspan x="3" y="0.2em" style="font-family: Arial, sans-serif; font-size: 10px; fill: black; font-weight: bold;">Fruits Red Wine</tspan></text><text text-anchor="middle" dominant-baseline="text-before-edge" transform="translate(-75.36010837145635,-151.67637170142905)"><tspan x="3" y="0.2em" style="font-family: Arial, sans-serif; font-size: 10px; fill: black; font-weight: bold;">Floral</tspan></text><text text-anchor="middle" dominant-baseline="text-before-edge" transform="translate(-155.79222686755182,259.1802973411089)"><tspan x="3" y="0.2em" style="font-family: Arial, sans-serif; font-size: 10px; fill: black; font-weight: bold;">Floral</tspan></text><text text-anchor="middle" dominant-baseline="text-before-edge" transform="translate(118.43387835646337,46.07225689520761)"><tspan x="3" y="0.2em" style="font-family: Arial, sans-serif; font-size: 10px; fill: black; font-weight: bold;">Floral</tspan></text><text text-anchor="middle" dominant-baseline="text-before-edge" transform="translate(144.09767115167574,-29.746938055139044)"><tspan x="3" y="0.2em" style="font-family: Arial, sans-serif; font-size: 10px; fill: black; font-weight: bold;">Floral</tspan></text><text text-anchor="middle" dominant-baseline="text-before-edge" transform="translate(-163.50101106081857,184.50441284043964)"><tspan x="3" y="0.2em" style="font-family: Arial, sans-serif; font-size: 10px; fill: black; font-weight: bold;">Floral</tspan></text><text text-anchor="middle" dominant-baseline="text-before-edge" transform="translate(-165.7386376773488,-84.7127949454534)"><tspan x="3" y="0.2em" style="font-family: Arial, sans-serif; font-size: 10px; fill: black; font-weight: bold;">Floral</tspan></text><text text-anchor="middle" dominant-baseline="text-before-edge" transform="translate(69.06863281504522,-152.84114762557462)"><tspan x="3" y="0.2em" style="font-family: Arial, sans-serif; font-size: 10px; fill: black; font-weight: bold;">Floral</tspan></text><text text-anchor="middle" dominant-baseline="text-before-edge" transform="translate(26.511171137491328,-85.56299277843496)"><tspan x="3" y="0.2em" style="font-family: Arial, sans-serif; font-size: 10px; fill: black; font-weight: bold;">Floral</tspan></text><text text-anchor="middle" dominant-baseline="text-before-edge" transform="translate(-162.28926960013268,222.62135190495343)"><tspan x="3" y="0.2em" style="font-family: Arial, sans-serif; font-size: 10px; fill: black; font-weight: bold;">Floral</tspan></text><text text-anchor="middle" dominant-baseline="text-before-edge" transform="translate(213.59040468128862,-4.800080625927867)"><tspan x="3" y="0.2em" style="font-family: Arial, sans-serif; font-size: 10px; fill: black; font-weight: bold;">Vegetal</tspan></text><text text-anchor="middle" dominant-baseline="text-before-edge" transform="translate(10.64035955637359,-13.09375278871235)"><tspan x="3" y="0.2em" style="font-family: Arial, sans-serif; font-size: 10px; fill: black; font-weight: bold;">Vegetal</tspan></text><text text-anchor="middle" dominant-baseline="text-before-edge" transform="translate(-165.4596200319029,-71.25090906368148)"><tspan x="3" y="0.2em" style="font-family: Arial, sans-serif; font-size: 10px; fill: black; font-weight: bold;">Vegetal</tspan></text><text text-anchor="middle" dominant-baseline="text-before-edge" transform="translate(-71.06604136323587,160.26592566145436)"><tspan x="3" y="0.2em" style="font-family: Arial, sans-serif; font-size: 10px; fill: black; font-weight: bold;">Vegetal</tspan></text><text text-anchor="middle" dominant-baseline="text-before-edge" transform="translate(-159.54034301926578,-281.1263757212258)"><tspan x="3" y="0.2em" style="font-family: Arial, sans-serif; font-size: 10px; fill: black; font-weight: bold;">Mineral</tspan></text><text text-anchor="middle" dominant-baseline="text-before-edge" transform="translate(186.36513735898762,75.19092572836999)"><tspan x="3" y="0.2em" style="font-family: Arial, sans-serif; font-size: 10px; fill: black; font-weight: bold;">Mineral</tspan></text><text text-anchor="middle" dominant-baseline="text-before-edge" transform="translate(324.2442504990847,-6.629976203350125)"><tspan x="3" y="0.2em" style="font-family: Arial, sans-serif; font-size: 10px; fill: black; font-weight: bold;">Mineral</tspan></text><text text-anchor="middle" dominant-baseline="text-before-edge" transform="translate(-137.99358009048643,201.77171512117536)"><tspan x="3" y="0.2em" style="font-family: Arial, sans-serif; font-size: 10px; fill: black; font-weight: bold;">Yeast</tspan></text><text text-anchor="middle" dominant-baseline="text-before-edge" transform="translate(278.29821924694,24.732997263346313)"><tspan x="3" y="0.2em" style="font-family: Arial, sans-serif; font-size: 10px; fill: black; font-weight: bold;">Malolactic Fermentation</tspan></text><text text-anchor="middle" dominant-baseline="text-before-edge" transform="translate(-141.6157399475478,101.74311806712778)"><tspan x="3" y="0.2em" style="font-family: Arial, sans-serif; font-size: 10px; fill: black; font-weight: bold;">Malolactic Fermentation</tspan></text><text text-anchor="middle" dominant-baseline="text-before-edge" transform="translate(-92.86052375578477,227.6862962457065)"><tspan x="3" y="0.2em" style="font-family: Arial, sans-serif; font-size: 10px; fill: black; font-weight: bold;">Oak Aging</tspan></text><text text-anchor="middle" dominant-baseline="text-before-edge" transform="translate(-25.004513242472896,53.125949731972725)"><tspan x="3" y="0.2em" style="font-family: Arial, sans-serif; font-size: 10px; fill: black; font-weight: bold;">Oak Aging</tspan></text><text text-anchor="middle" dominant-baseline="text-before-edge" transform="translate(163.85460020452456,-90.64626968183542)"><tspan x="3" y="0.2em" style="font-family: Arial, sans-serif; font-size: 10px; fill: black; font-weight: bold;">Oak Aging</tspan></text><text text-anchor="middle" dominant-baseline="text-before-edge" transform="translate(-151.03580230120352,130.32993748392906)"><tspan x="3" y="0.2em" style="font-family: Arial, sans-serif; font-size: 10px; fill: black; font-weight: bold;">Oak Aging</tspan></text><text text-anchor="middle" dominant-baseline="text-before-edge" transform="translate(293.2599361102688,-6.311899170976474)"><tspan x="3" y="0.2em" style="font-family: Arial, sans-serif; font-size: 10px; fill: black; font-weight: bold;">Oak Aging</tspan></text><text text-anchor="middle" dominant-baseline="text-before-edge" transform="translate(97.0403600384725,-80.40018326925004)"><tspan x="3" y="0.2em" style="font-family: Arial, sans-serif; font-size: 10px; fill: black; font-weight: bold;">Late Harvest / Botrytis</tspan></text><text text-anchor="middle" dominant-baseline="text-before-edge" transform="translate(-92.82782099793313,40.40140385161517)"><tspan x="3" y="0.2em" style="font-family: Arial, sans-serif; font-size: 10px; fill: black; font-weight: bold;">Late Harvest / Botrytis</tspan></text><text text-anchor="middle" dominant-baseline="text-before-edge" transform="translate(317.96584947244577,-0.11549124552592716)"><tspan x="3" y="0.2em" style="font-family: Arial, sans-serif; font-size: 10px; fill: black; font-weight: bold;">Fortified Wine</tspan></text><text text-anchor="middle" dominant-baseline="text-before-edge" transform="translate(-129.57353451776538,240.1227092077783)"><tspan x="3" y="0.2em" style="font-family: Arial, sans-serif; font-size: 10px; fill: black; font-weight: bold;">Aged White Wine</tspan></text><text text-anchor="middle" dominant-baseline="text-before-edge" transform="translate(137.79428510048572,-22.471217326050134)"><tspan x="3" y="0.2em" style="font-family: Arial, sans-serif; font-size: 10px; fill: black; font-weight: bold;">Aged Red Wine</tspan></text><text text-anchor="middle" dominant-baseline="text-before-edge" transform="translate(77.37521522964114,-151.10703309590147)"><tspan x="3" y="0.2em" style="font-family: Arial, sans-serif; font-size: 10px; fill: black; font-weight: bold;">Aged Red Wine</tspan></text><text text-anchor="middle" dominant-baseline="text-before-edge" transform="translate(195.32779447641371,70.15299197067759)"><tspan x="3" y="0.2em" style="font-family: Arial, sans-serif; font-size: 10px; fill: black; font-weight: bold;">Aged Red Wine</tspan></text><text text-anchor="middle" dominant-baseline="text-before-edge" transform="translate(-49.38079658128662,91.55297537719972)"><tspan x="3" y="0.2em" style="font-family: Arial, sans-serif; font-size: 10px; fill: black; font-weight: bold;">Aged Red Wine</tspan></text><text text-anchor="middle" dominant-baseline="text-before-edge" transform="translate(-39.139782499040464,-215.4636471836936)"><tspan x="3" y="0.2em" style="font-family: Arial, sans-serif; font-size: 10px; fill: black; font-weight: bold;">Trichloroanisole</tspan></text><text text-anchor="middle" dominant-baseline="text-before-edge" transform="translate(-18.677632614978613,-79.65704848858927)"><tspan x="3" y="0.2em" style="font-family: Arial, sans-serif; font-size: 10px; fill: black; font-weight: bold;">Oxygen</tspan></text><text text-anchor="middle" dominant-baseline="text-before-edge" transform="translate(-60.99180882476814,-21.01506234263541)"><tspan x="3" y="0.2em" style="font-family: Arial, sans-serif; font-size: 10px; fill: black; font-weight: bold;">Heat</tspan></text><text text-anchor="middle" dominant-baseline="text-before-edge" transform="translate(17.573473816006057,108.33726050545512)"><tspan x="3" y="0.2em" style="font-family: Arial, sans-serif; font-size: 10px; fill: black; font-weight: bold;">Volatile Acidity</tspan></text><text text-anchor="middle" dominant-baseline="text-before-edge" transform="translate(-149.53398842227764,158.73778659377336)"><tspan x="3" y="0.2em" style="font-family: Arial, sans-serif; font-size: 10px; fill: black; font-weight: bold;">Volatile Acidity</tspan></text><text text-anchor="middle" dominant-baseline="text-before-edge" transform="translate(-94.32441784982737,-80.70033412304399)"><tspan x="3" y="0.2em" style="font-family: Arial, sans-serif; font-size: 10px; fill: black; font-weight: bold;">Sulfides</tspan></text><text text-anchor="middle" dominant-baseline="text-before-edge" transform="translate(92.90684341716266,116.72297761417958)"><tspan x="3" y="0.2em" style="font-family: Arial, sans-serif; font-size: 10px; fill: black; font-weight: bold;">Sulfides</tspan></text><text text-anchor="middle" dominant-baseline="text-before-edge" transform="translate(-5.06125084120921,-145.2768815703426)"><tspan x="3" y="0.2em" style="font-family: Arial, sans-serif; font-size: 10px; fill: black; font-weight: bold;">Sulfides</tspan></text><text text-anchor="middle" dominant-baseline="text-before-edge" transform="translate(-32.61502052355645,-213.00876836055596)"><tspan x="3" y="0.2em" style="font-family: Arial, sans-serif; font-size: 10px; fill: black; font-weight: bold;">Sulfides</tspan></text><text text-anchor="middle" dominant-baseline="text-before-edge" transform="translate(-112.53377473370608,-210.69115962929047)"><tspan x="3" y="0.2em" style="font-family: Arial, sans-serif; font-size: 10px; fill: black; font-weight: bold;">Brett</tspan></text></g></g></svg>